<?xml version="1.0" encoding="UTF-8"?>
<svg id="Layer_2" data-name="Layer 2" xmlns="http://www.w3.org/2000/svg" viewBox="0 0 734.84 768.08">
  <defs>
    <style>
      .cls-1 {
        fill: #fff;
      }
    </style>
  </defs>
  <g id="Layer_1-2" data-name="Layer 1">
    <g>
      <path class="cls-1" d="M581.3,766.65c4.85-4.09,8.95-7.58,13.08-11.04,5.09-4.26,10.49-8.2,15.23-12.82,4.92-4.79,5.29-10.15,1.11-15.15-1.52-1.82-4.71-3.38-6.99-3.2-4.21,.33-8.76,1.26-12.4,3.3-16.43,9.2-32.57,19.15-44.86,33.63-4.66,5.49-9.21,6.75-15.69,6.73-59.99-.27-119.98-.39-179.97-.4-53.16-.01-106.31,.18-159.47,.23-4.32,0-8.64-.36-12.96-.62-3.48-.21-6.5-.77-7.4-5.19-.21-1.01-3.53-2.23-5.21-1.97-10.03,1.55-19.98,3.63-30.01,5.27-6.05,.99-12.18,2.09-18.28,2.12-36.83,.16-73.66,.03-110.49-.02-6.7,0-7.57-.85-6.77-7.52,.71-5.94,1.81-11.84,2.71-17.76,1.41-9.27,1.58-18.22-1.15-27.6-2.07-7.11-1.02-15.14-1.27-22.77-.05-1.65,.67-3.39,.37-4.96-2.73-14.16,1.57-27.46,4.51-41.01,1.44-6.61,1.29-13.55,1.95-20.33,1.37-13.89,2.54-27.8,4.34-41.64,.63-4.87,2.87-9.54,4.38-14.3,1.61-5.07,2.97-10.24,4.93-15.16,2.52-6.31,5.55-12.41,8.33-18.62,3.87-8.65,8.47-16.78,13.55-24.85,4.51-7.16,10.24-12.91,15.65-18.99,5.7-6.4,12.65-11.66,18.97-17.53,4.37-4.06,8.19-8.8,12.94-12.33,8.39-6.25,17.35-11.74,25.96-17.7,3.27-2.27,6.17-5.07,9.37-7.45,6.75-5.02,13.77-9.7,20.34-14.93,7.88-6.28,15.42-12.99,23.11-19.5,.76-.65,1.5-1.37,2.38-1.81,8.42-4.19,16.87-8.32,25.31-12.47,.3-.15,.65-.2,.93-.37,10.36-6.5,20.69-13.07,31.1-19.49,4.06-2.51,8.4-4.57,12.49-7.04,11.32-6.84,17.52-17.73,21.29-29.72,1.3-4.15-.14-10.12-2.33-14.17-2.92-5.41-3.94-10.74-4.38-16.63-.28-3.83-1.84-7.55-2.69-11.35-.84-3.71-1.44-7.47-2.27-11.19-1.39-6.28-2.92-12.53-4.29-18.82-.77-3.53-1.6-7.07-1.94-10.66-.92-9.59-1.92-19.2-2.26-28.82-.39-10.77-.09-21.56-.09-32.46,.14,.23,.49,.53,.48,.81-.78,17.07,4.2,33.28,7.39,49.76,1.71,8.81,3.2,17.66,4.93,26.47,.6,3.06,.91,6.56,2.62,8.94,1.9,2.64,5.26,4.23,8.36,5.62,3.06,3.73,6.13,7.45,9.19,11.18,.23-.05,.47-.09,.7-.14l-1.52-5.68c.39-.28,.77-.56,1.16-.84,1.41,1.92,2.72,3.92,4.26,5.72,1.03,1.21,2.4,2.14,3.61,3.19,.88-1.32,2.5-2.63,2.51-3.95,.03-5.25-1.21-10.6-.53-15.72,.83-6.32,3.06-12.45,4.82-18.63,.17-.58,1.36-1.37,1.93-1.27,7.49,1.38,11.66-6.35,18.94-6.64,3.73-.15,7.51-3.02,11.84-1.73,.74,.22,1.87,.22,2.44-.2,7.18-5.29,12.73-.23,18.27,3.09,5.81,3.48,11.37,1.46,16.06-1.1,4.7-2.57,10.22-4.94,12.4-11.06,.45-1.25,4.29-1.29,6.57-1.89,.16,.51,.33,1.03,.49,1.54-.94,.72-1.88,1.45-3.06,2.36,.79,.39,1.2,.74,1.62,.77,10.1,.57,20.22,.81,30.28,1.79,3.94,.38,8.27-1.11,11.83,3.25,5.09,6.24,6.53,13.14,7.13,20.76,.39,4.92,1.9,9.75,3.05,15.31,5.33-3.2,3.75-11.67,11.25-10.3,1.87-5.92,2.4-6.18,8.2-3.63,.7-4.11,1.19-8.16,2.09-12.12,1.38-6.07,3.54-12.01,4.48-18.14,2.69-17.55,3.34-35.06-2.99-52.15-.49-1.31-.48-2.95-.24-4.36,1.11-6.4-1.44-10.57-7.69-13.18-1.64-.69-2.79-2.62-4.07-4.05-.54-.6-.68-1.65-1.29-2.08-6.91-4.74-13.72-9.2-22.71-9.78-11.77-.76-23.25,.47-34.74,2.49-3.75,.66-7.49,1.56-11.27,1.85-1.56,.12-3.23-1.07-5.35-1.85,5.64-5.73,11.29-8.25,17.96-9.83,8.38-1.98,16.45-5.35,24.51-8.5,3.67-1.43,6.97-3.81,10.47-5.68,6.02-3.22,13.56-.71,16.81,5.55,.76,1.47,1.19,3.3,2.34,4.34,1.78,1.6,5.01,4.22,5.92,3.65,2.42-1.5,4.04-4.4,5.73-6.91,.44-.65,.16-2.02-.18-2.91-4.17-10.99-3.1-22.65-4.63-33.97-.7-5.16-3.28-10.06-4.95-14.92-11.4,4.63-22,4.81-32.56,4.95-3.04,.04-4.7-3.5-2.75-6.32,2.63-3.8,.89-6.69-1.18-9.52-5.15-7.04-12.44-9.69-20.85-8.9-3.18,.3-4.67-.34-6.32-3.14-1.07-1.83-3.84-3.03-6.09-3.73-5.8-1.81-11.69-4.07-17.65-4.47-4.86-.32-9.88,1.79-15.13,2.89,.51,.61,1.2,1.44,2.57,3.09-2.59-.57-4.47-.48-5.7-1.33-5.97-4.16-12.31-2.6-18.79-2.01-7.41,.67-14.9,.28-22.34,.72-2.87,.17-5.79,1.06-8.49,2.11-4.64,1.81-9.18,3.92-13.68,6.09-2.52,1.22-5.87,2.21-7.11,4.32-4.83,8.22-9.93,16.52-13.07,25.44-3.1,8.8-4.08,18.37-5.76,27.64-.59,3.24-.5,6.6-.68,9.9-.18,3.36-.31,6.73-.47,10.31,.6,.76,2.23,2.01,2.72,3.61,1.44,4.72-1.08,31.83-4.02,36.86v-22.19c-.55,.98-.95,1.7-1.35,2.42-2.75-1.88-5.76-3.5-8.09-5.8-.7-.69-.11-3.9,.91-4.93,5.63-5.66,6.49-11.91,3.93-19.28-.78-2.25-.02-5.09,.26-7.64,.38-3.42,1.71-6.89,1.35-10.19-1.47-13.37,0-26.5,1.4-39.78,1.67-15.74,10.96-26.38,21.67-36.28,2.9-2.68,7.16-3.87,10.77-5.8,1.25-.67,2.54-1.36,3.61-2.28,3.85-3.32,7.63-6.71,11.39-10.12,2.3-2.09,4.48-4.3,6.78-6.39,1.11-1.01,2.38-1.85,3.58-2.77,.73,1.18,1.53,2.32,2.15,3.56,.42,.83,.58,1.8,.98,3.08,1.14-.56,2.32-.74,2.74-1.4,3.61-5.61,9.22-5.77,14.99-6.04,2.27-.11,4.47-1.41,6.74-2.01,2.04-.54,4.38-1.67,6.16-1.14,6.49,1.95,11.15-.95,15.8-4.74,1.12-.92,3.34-1.95,4.24-1.45,6.38,3.55,13.35,1.53,19.95,2.62,1.82,.3,3.92,1.15,5.14,2.45,3.97,4.2,9.97,5.66,15.27,3.21,5.88-2.71,8.57-2.08,12.29,2.98,3.74,5.08,8.35,8.39,15.01,8.5,4.63,.08,8.41,1.99,11.73,5.62,6.51,7.1,12.28,14.46,14.31,24.16,.23,1.1,.78,2.24,1.49,3.12,4.13,5.16,8.52,10.13,12.47,15.43,1.66,2.22,2.92,4.99,3.52,7.7,1.06,4.85,1.9,9.82,2.08,14.77,.43,11.73,1.1,23.52,.27,35.18-.36,5.11-1.04,10.02-.18,15.14,.85,5.07,2.45,9.35,7.79,11.19,.42,.14,.77,.61,1.04,1.01,.16,.24,.1,.63,.08,.48-2.74,1.85-6.08,3.03-7.69,5.39-4.18,6.13-3.38,13.29-2.7,20.29,1.3,13.33,2.94,26.64,3.72,40.01,1.09,18.76,1.61,37.55,2.15,56.33,.07,2.29-.79,4.89-1.99,6.89-7.08,11.87-11.5,23.87-3.89,37.27,2.13,3.75,3.62,7.87,5.73,11.63,6.41,11.46,15.69,19.96,27.18,26.27,10.49,5.76,20.55,12.34,31.19,17.78,12.28,6.28,25.06,11.58,37.49,17.57,4,1.93,7.78,4.45,11.35,7.12,12.13,9.05,24.02,18.42,36.19,27.42,8.93,6.59,18.21,12.7,27.22,19.18,11.9,8.55,23.47,17.48,33.14,28.65,4.12,4.76,8.7,9.12,13.2,13.53,11.47,11.23,19.28,24.89,26.19,39.16,.51,1.05,1.01,2.12,1.34,3.23,6.6,22.17,12.98,44.33,13.24,67.8,.17,15.79,1.18,31.58,2.01,47.36,.37,6.96,1.7,13.89,1.74,20.84,.04,5.93-.77,11.94-1.84,17.8-2.33,12.74,.32,25.21,1.46,37.78,1.22,13.43,2.38,26.87,3.53,40.31,.26,3.04-.91,4.47-4.29,4.46-26.83-.09-53.66,0-80.49-.11-1.41,0-3.22-.89-4.16-1.96-5.2-5.88-11.1-6.89-19.22-5.21-12.78,2.63-24.94,8.72-38.48,7.38-1.32-.13-2.66,.01-3.98-.06-.46-.03-.91-.34-2.88-1.13ZM305.5,435.88c12.07,28.95,39.33,45.01,56.7,71.63,1.73-2.61,2.46-4.48,3.8-5.61,9.25-7.79,18.66-15.4,27.96-23.12,8.43-7,17.5-13.43,24.93-21.38,4.57-4.89,6.6-12.17,9.68-18.41,.31-.62,.04-1.53,.04-2.3-.47-.34-.95-.67-1.42-1.01-.16,.66-.19,1.83-.49,1.9-1.76,.42-3.58,.58-5.38,.83,.26-1.63,.21-3.39,.84-4.87,3.5-8.28,7.17-16.49,10.77-24.73,.86-1.96,1.29-4.23,2.54-5.88,4.31-5.71,8.17-11.42,9.85-18.68,1.97-8.46,5.08-16.65,7.78-24.94,3.32-10.2-1.74-20.41,.07-30.62,.02-.12-.51-.34-.79-.51-2.13,1.2-4.15,2.7-6.42,3.55-8.74,3.3-16.09,7.86-18.39,17.82-.24,1.05-1.37,2.06-2.32,2.76-1.9,1.41-4.21,2.34-5.91,3.94-2.21,2.08-3.71,4.94-6.02,6.85-2.33,1.93-5.91,2.55-7.83,4.72-5.34,6.05-12.67,8.09-19.78,9.48-18.34,3.59-37.05,4.97-55.31,.39-10.55-2.64-21.38-4.77-29.64-14.49-5.55-6.54-9.35-14.63-16.55-19.94-5.04-3.71-9.32-8.46-14.63-13.38-2.61,17.52-.54,33.21,5.77,48.16,4.32,10.25,8.06,21.46,15.07,29.67,7.17,8.39,6.42,21.28,17.04,27.01,.13,.07,.02,.61,.02,1.04-.73,.04-1.45,.08-2,.11Zm27.08-117.43c-1.35-1.26-2.39-2.35-3.55-3.28-1.28-1.04-3.17-1.66-3.9-2.97-.94-1.68-.98-3.85-1.41-5.81,1.17-.18,2.49-.81,3.5-.48,14.64,4.72,29.51,5.01,44.26,1.38,8.15-2.01,15.98-5.45,21.44-12.61,.98-1.29,2.9-2.3,4.53-2.58,6.64-1.13,11.65-8.8,9.89-15.2-.47-1.72-.13-3.67-.16-5.51,1.75,.4,3.5,.8,5.56,1.28,.09-1.48,.45-3.15,.22-4.74-.21-1.47-1.05-2.84-1.62-4.26-1.16,.76-2.6,1.29-3.44,2.32-5.44,6.73-10.72,13.58-16.11,20.35-1.86,2.34-3.92,4.52-6.62,7.63q-.14-9.07-6.92-8.25c6.22-7.27,15.68-11.01,20.22-19.51-9.17,2.13-11.38,2-18.93-2.04,4.92-.72,8.91-1.3,12.89-1.89-.06-.67-.12-1.34-.19-2.02-10.33,0-20.66-.01-30.99,0-4.98,0-9.98,.27-14.95,.09-10.73-.39-21.4-1.9-32.18,.53-3.99,.9-2.66,3.86-4.03,5.68,1.63,.55,3.26,1.59,4.87,1.57,5.98-.06,11.97-.48,17.95-.76,.02,.52,.05,1.04,.07,1.56-3.33,.48-6.68,.86-9.98,1.47-2.47,.46-4.88,1.25-7.33,1.85-1.45,.36-2.92,.64-4.38,.96,1.07,1.46,2,3.07,3.26,4.34,.87,.88,2.91,1.08,3.2,1.98,.65,2,.53,4.25,.72,6.39-1.61-.66-3.6-.93-4.77-2.06-3.53-3.41-7.13-5.81-13.48-2.81,.61,2.28,1.31,4.81,1.97,7.34,.2,.77,.5,1.59,.43,2.35-.53,5.56,2.2,8.91,7.09,10.98,1.02,.43,2.66,1.38,2.62,1.99-.53,7.39,5.45,10.44,9.72,14.37,2.83,2.6,6.58,4.66,10.48,.33Zm170.99,246.13c.59,.15,1.17,.31,1.76,.46,.36-2.02,.72-4.03,1.31-7.38,2.6,.51,6.41,1.95,10.17,1.86,6.61-.17,9.58,2.16,8.35,8.92-.03,.16,.46,.41,.9,.78,5.23-.9,2.21-5.02,2.63-8.9,7.72,1.67,15.02,3.24,23.01,4.97-.66-1.8-1.08-2.92-1.49-4.05,.35-.32,.71-.65,1.06-.97,1.69,1.3,3.39,2.61,5.2,4,1.36-3.14,.99-4.99-2.87-5.53-4.99-.7-9.91-1.93-14.89-2.7-10.6-1.64-21.23-3.09-31.83-4.72-2.94-.45-4.77,.58-4.65,3.53,.14,3.26,.87,6.49,1.34,9.74Zm-87.73-11.37c.83,2.54,.88,6.2,2.63,7.43,7.82,5.47,16.5,2.32,19.53-6.76,1.3-3.89,1.51-8.03-1.85-11.17-2.87-2.68-6.03-5.19-9.45-.49-.2,.27-.95,.15-1.44,.21-6.12,.69-9.13,4.29-9.41,10.79Zm41.88,3.79c.38-5.86,3.23-4.94,6.25-4.59,1.11,.13,3.35-1.46,3.43-2.4,.11-1.36-1.33-4.08-2.03-4.05-2.83,.1-5.64,1.03-8.43,1.65-.3-2.67-7.06-4.14-13.24-2.34-1.07,4.77-2.06,9.16-3.33,14.81,3.03-.9,5.41-.93,6.32-2.1,.69-.89-.52-3.22-.79-4.93-.21-1.3-.26-2.62-.38-3.93l-.85,1.47c1.74,1.1,3.47,2.2,5.37,3.41-.08,1.55-.2,3.74-.31,5.92,.6,.09,1.21,.18,1.81,.28,.88-2.75,1.76-5.5,2.9-9.05,1.11,1.97,1.77,3.15,3.29,5.86Zm42.65-5.86c-4.94-1.85-9.24-4.7-13.99-1.01-3.23-7.43-5.03-.14-7.69,1.17-.13-1.85-.22-3.21-.3-4.39-2.79-.2-5.19-.37-7.98-.56v6.16c2.67,.28,4.95,.52,7.68,.8-.9,2.1-1.84,3.3-1.81,4.49,.03,1.3,.68,2.83,1.57,3.78,.6,.63,2.89,.82,3.04,.52,.59-1.18,.82-2.63,.81-3.98-.02-1.37-.48-2.74-.78-4.26,6.34,.41,12.07,.77,18.04,1.15,.4-1.1,.83-2.31,1.4-3.87Zm-141.63,48.55c-.54,.61-2.52,1.85-2.77,3.38-.46,2.82,3.98,7.38,6.64,6.8,1.84-.4,4.52-2.18,4.76-3.68,.59-3.69-3.08-6.61-8.63-6.5Zm35.15-287.72c.09-.56,.18-1.13,.27-1.69-2.16-.9-4.27-2.2-6.52-2.52-.98-.14-2.25,1.7-3.39,2.64,1.06,.95,2.08,2.64,3.19,2.7,2.12,.11,4.3-.7,6.45-1.12Zm122.68,252.13c-2.43-1.4-3.78-2.68-5.23-2.82-.81-.08-2.74,2.26-2.55,2.6,.78,1.39,2.02,2.93,3.43,3.41,.75,.26,2.2-1.54,4.34-3.2Zm-24.25-4.07c-2.34-1.33-3.61-2.64-4.77-2.54-1.17,.1-2.22,1.59-3.32,2.47,1.07,1,2.06,2.66,3.23,2.8,1.14,.13,2.46-1.3,4.86-2.73Zm27.02,1.28c-1.1,2.26-2.22,3.49-2.01,4.4,.29,1.26,1.59,2.28,2.46,3.41,1.02-1.2,2.55-2.29,2.85-3.65,.18-.82-1.56-2.07-3.3-4.16Zm22.29,6.6c-1.59-1.47-2.55-2.36-3.51-3.24-.95,1.17-2.42,2.24-2.68,3.55-.16,.83,1.46,2.02,2.28,3.05,1.1-.94,2.2-1.89,3.91-3.36Zm-148.86-264.66c.53,.42,1.06,.83,1.59,1.25,1.28-1.58,2.92-3,3.68-4.8,.38-.9-.83-2.49-1.73-4.8-1.57,3.69-2.55,6.02-3.54,8.36Zm-25.5,28.41c2.22-2.37,4.58-4.6,.13-7.4-1.54,2.51-4.92,4.69-.13,7.4Zm174.22,240.09h6.62c-.75-2.17-1.3-3.77-2.25-6.53-1.8,2.68-2.83,4.22-4.37,6.53Zm-71.69-16.54c-.83-.14-1.66-.28-2.49-.41-.23,1.96-.48,3.92-.61,5.88,0,.05,1.99,.34,2,.27,.45-1.89,.76-3.82,1.09-5.73Z"/>
      <path class="cls-1" d="M321.76,156.17c-3.88,.25-7.77,.49-11.65,.75-10.91,.71-21.89,.94-32.71,2.38-4.29,.57-8.16,3.97-12.34,5.83-1.95,.86-4.18,1.11-6.28,1.63-.13-1.82-.33-3.63-.36-5.45-.13-6.51,2.51-11.24,8.21-14.81,3.16-1.98,5.06-3.07,9.17-1.44,4.51,1.78,10.07,.7,15.1,1.4,8.81,1.24,17.6,2.77,26.33,4.49,1.83,.36,3.39,2.1,5.07,3.21-.18,.67-.35,1.34-.53,2.01Z"/>
      <path class="cls-1" d="M391.38,165.2c-1.5,.91-3.3,2-5.65,3.42,1.42,.75,2.4,1.27,4,2.11-4.02,1.18-7.33,2.15-11.1,3.25,.67-8.41,4.19-13.38,11.77-15.51,.37,1.1,.69,2.08,1.16,3.47,11.86-5.99,22.27-1.1,32.45,3.97,2.29,1.14,5.53,5.4,5.02,6.28-2.13,3.64-4.96,.66-7.59-.45-3.1-1.31-6.99-1.27-8.11-5.58-.07-.27-3.22-.35-3.4,.1-1.76,4.38-4.68,4.64-9.11,4.58-4.57-.06-6.53-2.11-8.47-5.28-.07-.11-.3-.12-.96-.38Z"/>
      <path class="cls-1" d="M271.2,180c10.06-11.08,20.65-17.49,35.02-14.86,.49,.09,.98,.2,1.47,.24,6.89,.56,10.09,3.25,12.32,10.63-1.44,.25-2.84,.49-3.01,.52-1.27-2.44-1.81-4.79-3.28-6-2.55-2.1-3.96-.1-5.19,2.27-2.71,5.21-10.88,5.92-14.59,1.38-.92-1.12-1.72-2.34-3.23-4.42-4.55,6.6-10.51,10.07-19.52,10.23Z"/>
      <path class="cls-1" d="M348.77,244.62c4.05-2.39,8.71-5.14,13.39-7.91-1.21,5.87-6.75,8.84-13.39,7.91Z"/>
      <path class="cls-1" d="M324.34,234.4c3.46,1.01,6.93,2.02,11.56,3.37-6.54,2.75-7.39,2.51-11.56-3.37Z"/>
      <path class="cls-1" d="M369.37,421.55c-1.82,.57-3.64,1.15-5.47,1.72-.24-.69-.49-1.39-.73-2.08,1.76-.69,3.52-1.38,5.29-2.06,.3,.81,.61,1.61,.91,2.42Z"/>
      <path class="cls-1" d="M435.08,545.02c2.13,7.46,.25,10.9-6.21,14.32-4.76,2.52-5.78-1.79-9.57-4.44,6.17,.48,8.63-1.46,8.07-6.58-.11-.97,1.58-2.13,3.36-2.61-.46,2.87-.92,5.74-1.37,8.6,.27,.04,.54,.07,.81,.11,1.52-2.9,3.03-5.8,4.91-9.4Z"/>
    </g>
  </g>
</svg>