<?xml version="1.0" encoding="UTF-8"?>
<svg id="Layer_2" data-name="Layer 2" xmlns="http://www.w3.org/2000/svg" viewBox="0 0 750.9 675.61">
  <g id="Layer_1-2" data-name="Layer 1">
    <g>
      <path d="M401.26,230.22c2.18-2.64,4.11-4.97,6.74-8.15-21.77-.3-40.8,6.18-58.99,15.97-.31-.35-.61-.69-.92-1.04,3.32-4.49,6.64-8.98,9.95-13.47-22.12,3.34-39.52,16.04-57.28,28l-1.05-.78c1.94-5.7,3.89-11.4,5.9-17.31-.6,0-1.17-.18-1.46,.03-21.87,15.79-40.71,34.22-52.33,59.16-3.04,6.52-2,13.01-1.64,19.62,.19,3.46,.46,6.91,.7,10.37-.41,.26-.81,.53-1.22,.79-10.48-11.93-20.97-23.87-31.45-35.8-.39,.18-.78,.37-1.17,.55,1.22,17.44,2.45,34.89,3.73,53.15,5.98-2.61,11.21-4.9,16.45-7.18,.21,.22,.41,.44,.62,.66-.67,.96-1.24,2-2.01,2.86-12.31,13.79-24.66,27.54-36.96,41.33-5.44,6.1-5.63,8.58,.61,13.62,13.86,11.18,28.07,21.95,42.15,32.86,.34,.26,.93,.2,2.17,.44v-12.62c.5-.15,1-.29,1.51-.44,1.1,2.05,2.25,4.07,3.28,6.15,7.82,15.83,15.7,31.64,23.36,47.55,1.49,3.1,3.31,4.4,6.79,4.62,7.47,.47,14.93,1.31,22.35,2.37,3.45,.49,4.98-.42,6.18-3.77,6.73-18.81,13.73-37.53,20.64-56.28,.56-1.52,1.19-3.02,2.92-4.32-1.04,7.46-2.09,14.92-3.13,22.39,.31,.19,.63,.37,.94,.56,1.36-1.32,2.77-2.59,4.06-3.97,15.06-16.24,30.11-32.49,45.14-48.75,5.07-5.49,4.85-8.99-1.09-13.63-13.25-10.37-26.57-20.63-39.86-30.95-1.5-1.17-2.96-2.39-3.99-4.54,5.45,.83,10.9,1.66,16.93,2.57v-53.29c-1.53,1.71-2.71,2.88-3.72,4.17-8.9,11.43-17.76,22.89-26.64,34.34-4.37,5.65-4.67,5.7-12.5,1.89,14.37-19.85,28.93-39.26,49.57-54.95,.41,10.14,.83,19.03,1.11,27.93,.43,13.82,.67,27.66,1.26,41.47,.08,1.85,1.33,4,2.68,5.38,8.42,8.51,16.99,16.87,25.58,25.21,3.35,3.26,3.44,6.5,.57,10.11-13.39,16.8-26.61,33.73-40.14,50.42-7.65,9.44-16.07,18.27-23.57,27.83-4.13,5.26-7.06,11.46-11.11,18.2,4.39,.87,7.45,1.47,10.51,2.08,0,.29,.01,.57,.02,.86-2.66,.71-5.41,1.2-7.97,2.17-6.52,2.46-13.31,4.49-19.35,7.86-14.73,8.22-21.73,23.69-18.48,40.25,.52,2.65,2.91,6.03,5.29,7.02,11.02,4.59,22.8,4.3,34.44,3.42,1.68-.13,4.09-3.4,4.46-5.51,.89-5.05,.45-10.32,1.18-15.41,.33-2.28,1.63-5.14,3.42-6.39,10.52-7.32,21.17-14.48,32.07-21.2,4.58-2.82,6.19-6.67,4.3-10.89-3.43-7.65-7.83-14.88-11.96-22.21-.95-1.69-2.4-3.09-4.49-5.72,8.76,3.52,16.28,6.53,23.79,9.55,.28-.43,.56-.87,.85-1.3-4.35-5.81-8.7-11.62-13.05-17.43,.29-.33,.59-.67,.88-1,15.94,10.21,31.65,20.97,52.51,23.64-9.41-10.81-17.8-20.47-26.2-30.12,.42-.5,.84-1,1.26-1.5,8.6,4.5,17.04,9.34,25.83,13.41,9.66,4.48,15.73,11.88,20.09,21.26,1.77,3.81,2.06,6.93-.16,10.73-4.09,7-7.64,14.32-11.27,21.23,8,3.25,15.5,6.3,23,9.34l-.62,1.7c-3.32-.67-6.64-1.89-9.96-1.89-7.42,0-15.1-.49-22.2,1.19-16.44,3.91-24.86,14.33-26.15,31.1-.32,4.12-1.82,4.91-5.46,4.9-33-.09-66,0-99.01-.12-2.55,0-5.37-.66-7.6-1.87-66.19-35.89-107.86-90.44-118.63-165.15-12.84-89.03,18.65-161.65,90.44-215.5,78.23-58.67,192.48-55.81,268.25,5.07,.51,.41,1.21,.59,2.88,1.36-10.66,1-25.07-3.73-27.88-8.44-5.06,2.6-5.23,4.56-1.06,13.38-.66,.38-1.3,.97-2.04,1.15-16.02,3.87-32.14,5.65-48.5,2.16-14.36-3.06-25.17-10.83-32.22-24.73-.64,1.49-1.18,2.24-1.28,3.04-3.59,30.21,11.25,55.62,39.36,67.69,18.72,8.04,38.44,10.64,58.57,10.89,14.24,.18,28.33,1.01,41.62,6.74,3.49,1.51,7.38,2.97,9.93,5.59,5.18,5.33,10.33,6.07,17.47,.82-1.84,7.03-5.58,10.52-10.24,13-12.94,6.91-26.97,8.28-41.26,7.15-27.58-2.18-53.18-11.81-78.82-21.3-11.69-4.33-23.59-8.1-35.4-12.14-.76-.26-1.47-.66-2.85-1.29Z"/>
      <path d="M573.37,444.97c.3-4.34,.81-7.97,.76-11.59-.13-8.17-3.43-12.06-11.22-14.37-5.74-1.7-11.37-3.75-17.05-5.64-3.46-1.15-3.75-2.92-2.46-6.41,3.92-10.59,7.74-21.26,10.67-32.15,4.84-18.05,1.24-34.89-10.29-49.48-8.12-10.29-17.26-19.77-26.02-29.55-.96-1.07-2.39-1.72-3.05-3.3,5.7,.58,10.85,2.78,13.96,7.03,5.61,7.68,13.01,7.05,20.63,5.78,16.71-2.79,28.04-12.95,36.15-27.26,.8-1.41,1.5-2.88,2.31-4.44,20.67,29.22,11.87,135.64-14.38,171.38Z"/>
      <path d="M451.26,347.36c2.01,2.54,4.07,5.04,6.01,7.63,6.19,8.25,12.1,16.72,18.57,24.74,5.84,7.23,6.8,15.29,5.7,24.01-.26,2.08-.45,4.17-.07,6.59,17.88-12.79,38.2-23.06,43.92-47.27,.82,11.79-2.92,21.86-10.01,30.84-.31,.39-.59,.85-1,1.11-8.17,5.29-9.43,13.13-8.68,22.05,.44,5.29,.21,10.68-.24,15.97-.34,3.98,1.04,6.65,4.1,8.94,10.79,8.08,21.52,16.24,32.27,24.38,1.28,.97,2.5,2.02,4.88,3.95-4.64,.84-8.09,1.79-11.58,2.04-11.81,.87-24.48,13.38-25.27,25.23-.32,4.86,1.98,7.56,7.33,8.12,2.73,.28,5.51,.05,8.48,.72-13.94,13.94-29.75,24.86-47.43,34.07-.75-1.48-1.45-2.54-1.86-3.71-.77-2.19-.81-4.9-2.16-6.6-6.15-7.73-3.72-14.07,1.3-21.51,7.04-10.43,10-22.44,8.11-36.52,4.63,3.14,8.39,5.7,12.15,8.26,.3-.26,.59-.52,.89-.77-2.24-4.73-4.42-9.5-6.75-14.18-2.52-5.07-4.97-10.19-7.83-15.06-8.28-14.1-12.04-29.02-9.64-45.44,1.46-9.99-2.06-19.04-6.61-27.72-5.1-9.71-10.22-19.41-15.33-29.11,.26-.25,.51-.5,.77-.74Z"/>
      <path d="M164.37,128.79c-2.73,2.23-5.02,4.09-7.76,6.32-1.49-1.61-2.89-2.94-4.07-4.43-7.95-10.04-15.93-20.07-23.7-30.25-1.39-1.83-3.21-5.48-2.48-6.4,2.55-3.17,5.88-5.96,10.76-3.62,4.95,2.37,10.06,4.4,15.11,6.56,1.49,.64,3.01,1.19,5.69,2.24-1.09-5.97-2.01-11.07-2.95-16.17-.36-1.96-.48-4.02-1.16-5.87-1.41-3.81,.32-5.86,3.43-7.6,3.4-1.89,6.16-1.04,8.39,1.73,6.58,8.16,13.05,16.4,19.56,24.62,2.57,3.25,5.11,6.52,7.98,10.17-3.03,2.45-5.81,4.7-8.99,7.27-6.25-7.88-12.29-15.49-18.32-23.1-.36,.16-.72,.31-1.09,.47,.83,4.46,1.97,8.89,2.33,13.38,.15,1.88-.9,4.49-2.32,5.68-1.25,1.05-3.99,1.22-5.68,.64-3.83-1.32-7.42-3.34-11.11-5.08-.28,.34-.55,.67-.83,1.01,5.67,7.38,11.34,14.77,17.21,22.41Z"/>
      <path d="M269.73,41.26c2.41,2.99,5.58,5.64,7.08,9.03,4.26,9.61,1.37,15.88-8.49,19.67-5.9,2.27-11.94,4.14-17.85,6.38-3.1,1.17-4.43,.13-5.49-2.83-4.82-13.47-9.77-26.89-14.82-40.27-1.06-2.82-.5-4.22,2.36-5.24,5.64-2,11.1-4.51,16.77-6.41,12.76-4.28,22.51,4.58,19.81,17.82-.16,.79-.23,1.59-.35,2.39,.32-.18,.65-.37,.97-.55Zm-7.33,6.86c-4.52,2.97-8.27,4.66-10.63,7.5-.62,.74,.22,7.96,4.69,7.39,3.4-.43,9.12-.29,9.66-5.53,.27-2.63-2.1-5.53-3.72-9.36Zm-2.37-8.77c-2.92-3.66-4.78-7.81-6.49-7.75-3.1,.11-6.11,2.73-9.16,4.3,1.42,2.6,2.74,7.29,4.29,7.36,3.24,.16,6.61-2.1,11.36-3.92Z"/>
      <path d="M40.84,332.49c-8.14-1.64-18.64-3.46-28.98-5.96-5.69-1.38-8.55-5.67-7.98-11.7,.57-6.1,1.68-12.23,3.39-18.11,1.99-6.84,6.32-9.4,13.35-8.29,9.53,1.51,19.04,3.27,28.47,5.34,6.96,1.53,10.27,6.45,9.4,13.71-.64,5.28-1.66,10.55-3.03,15.68-1.8,6.73-5.8,9.53-14.62,9.33Zm-23.48-32.08c-.82,4.03-1.4,7.44-2.24,10.79-.7,2.78,.34,4,3.02,4.47,5.72,1,11.41,2.17,17.13,3.2,11.12,2.01,9.3,3.8,11.73-8.55,.03-.16,.04-.33,.08-.49,.7-2.82-.29-4.24-3.28-4.73-6.38-1.05-12.71-2.41-19.08-3.59-2.37-.44-4.77-.71-7.36-1.09Z"/>
      <path d="M608.29,84.67c-1.16,2.77-1.75,5.29-3.12,7.27-5.39,7.8-10.88,15.55-16.62,23.1-4.55,5.99-9.83,7.14-16.22,3.34-4.84-2.88-9.46-6.24-13.75-9.89-5.54-4.71-6.33-9.98-2.27-15.97,5.6-8.26,11.53-16.31,17.62-24.22,3.55-4.61,8.69-5.85,13.84-2.81,5.82,3.44,11.27,7.63,16.45,12,1.97,1.66,2.74,4.73,4.07,7.19Zm-30.13,25.06c.73-1.41,1.21-2.67,1.96-3.74,3.16-4.48,6.46-8.86,9.6-13.35,6.94-9.97,7.94-6.99-2.63-15.03-2.36-1.8-3.9-1.81-5.68,.72-4.48,6.39-9.19,12.62-13.68,18.99-.68,.96-1.36,3.11-.95,3.46,3.21,2.82,6.69,5.33,11.38,8.94Z"/>
      <path d="M233.49,79.53c-1.76,2.33-3.45,5.95-6.28,8-4.67,3.39-9.91,6.14-15.21,8.5-6.47,2.88-11.38,1.32-14.99-4.74-5.02-8.44-9.72-17.08-14.23-25.8-2.81-5.42-1.86-11.06,2.96-14.31,5.61-3.79,11.68-7.07,17.92-9.69,5.56-2.33,10.28-.51,13.32,4.69,5.21,8.91,9.99,18.06,14.84,27.18,.75,1.41,.88,3.15,1.67,6.19Zm-24.8,6.19c3.3-1.8,6-3.45,8.85-4.77,3.09-1.43,3.17-3.23,1.59-5.93-2.69-4.59-5.07-9.35-7.71-13.97-6-10.53-2.79-10.6-15.05-4.05-2.46,1.31-3.02,2.69-1.64,5.13,3.9,6.95,7.66,13.99,11.56,20.95,.57,1.01,1.59,1.77,2.4,2.64Z"/>
      <path d="M34.17,217.56c2.51-7.15,5.35-15.87,12.32-22.31,3.28-3.03,7.48-2.86,11.28-1.04,8.86,4.24,17.68,8.57,26.31,13.24,6.34,3.43,8.21,8.5,5.51,15.18-2.17,5.37-4.89,10.59-7.9,15.54-3.45,5.67-8.59,7.37-14.69,4.59-9.07-4.14-17.91-8.79-26.74-13.42-3.94-2.07-6.22-5.45-6.09-11.77Zm45.12,1.97c-1.1-.89-2.04-1.91-3.19-2.51-4.85-2.55-9.72-5.06-14.66-7.41-11.08-5.26-8.18-7.13-14.67,5.26-1.31,2.5-.74,3.94,1.71,5.13,7.15,3.5,14.23,7.17,21.4,10.63,.98,.47,3.14,.56,3.46,.03,2.08-3.38,3.79-6.98,5.95-11.12Z"/>
      <path d="M527.99,69.81c-2.01,3.84-4.19,7.73-6.09,11.76-1.35,2.85-2.92,3.84-5.76,1.87-1.22-.84-3.07-1.05-3.89-2.12-.95-1.24-1.99-3.56-1.45-4.65,6.6-13.25,13.53-26.34,20.27-39.52,1.23-2.4,2.58-2.49,4.78-1.35,5.76,2.99,11.72,5.6,17.4,8.72,8.08,4.44,9.81,10.48,5.81,18.88-3.91,8.23-5.94,10.16-12.78,12.39-.78,7.11-1.55,14.08-2.4,21.83-3.38-1.69-5.97-2.56-7.97-4.16-1.25-1-2.28-3.1-2.27-4.7,.02-3.13,.85-6.25,1.33-9.38,1.07-6.94,.73-7.43-6.98-9.58Zm15.72-3.84c2.06-4.14,5.56-7.98,4.76-10.4-.88-2.67-6.1-5.94-8.7-5.41-2.45,.5-5.83,5.98-5.33,8.61,.49,2.59,5.34,4.35,9.28,7.2Z"/>
      <path d="M656.01,174.53c-3.79,6.27-7.26,12.02-11.21,18.55-2.57-3.17-4.72-5.43-6.33-8.03-.56-.9-.13-2.86,.51-3.96,1.82-3.17,3.77-6.32,6.07-9.14,2.65-3.26,2.43-6.12-.66-8.55-1.02-.8-3.33-1.12-4.36-.5-2.98,1.79-5.74,4-8.32,6.35-2.6,2.37-4.52,2.15-6.42-.72-1.35-2.04-2.86-3.98-4.5-6.23,12.8-10.01,25.2-19.78,37.76-29.34,.87-.66,3.62-.32,4.36,.54,4.69,5.39,9.34,10.86,13.45,16.7,4.41,6.27,3.33,12.15-2.41,17.31-6.97,6.27-9.17,7.11-17.93,7.02Zm4.85-27.69c-1.78,1.22-2.88,1.9-3.91,2.69-6.44,4.92-6.5,6.71-.18,12.21,.78,.68,2.47,1.11,3.36,.74,7.23-2.94,8.01-6.33,3.09-12.33-.83-1.02-1.54-2.14-2.37-3.31Z"/>
      <path d="M488.85,17.43c-4.13,15.87-8.11,30.99-11.97,46.14-.64,2.5-1.73,3.4-4.24,2.48-1.4-.51-2.87-.9-4.35-1.1-3.46-.47-3.85-2.45-2.99-5.35,1.13-3.83,2.04-7.72,3.17-11.56,.83-2.84,.55-4.49-2.89-5.4-10.51-2.79-10.47-2.95-13.27,7.46-.35,1.29-.87,2.56-.98,3.87-.44,5.13-2.74,6.2-7.67,4.72-4.11-1.23-5.73-2.4-4.4-7.07,3.69-12.97,7.11-26.03,10.1-39.18,1.19-5.24,3.84-4.43,7.56-3.68,4.28,.86,6.28,2.44,4.4,7.02-.88,2.14-1.43,4.47-1.75,6.76-.35,2.45-1.05,6.79-.22,7.15,3.72,1.63,7.92,2.22,11.99,2.91,.41,.07,1.39-1.63,1.68-2.63,1.11-3.84,2.17-7.7,3.02-11.6,.66-3.03,1.96-4.4,5.19-3.2,2.31,.85,4.73,1.4,7.62,2.23Z"/>
      <path d="M646.7,194.9c1.49-.5,2.97-1.05,4.49-1.49,11.84-3.4,23.7-6.78,35.54-10.17,8.94-2.56,11.33-1.63,15.68,6.59,5.47,10.32,6.04,7.3-2.63,15.18-10.21,9.28-20.55,18.41-31.67,28.36-1.92-3.3-3.95-5.93-4.91-8.9-.38-1.18,1.2-3.71,2.56-4.63,4.34-2.95,5.13-6.11,1.69-10.19-.42-.5-.67-1.15-1.01-1.72q-3.66-6.38-10.93-4.4c-4.76,1.29-6.03,.11-8.82-8.63Zm32.12,13.43c4.75-4.09,8.8-7.48,12.7-11.04,.67-.61,1.17-2.23,.82-2.9-.36-.71-1.98-1.37-2.81-1.15-5.37,1.42-10.68,3.09-16.64,4.87,2.15,3.7,3.84,6.62,5.93,10.22Z"/>
      <path d="M627.72,96.74c4.72,4.68,11.05,10.76,17.09,17.11,1.25,1.32,1.98,3.63,2.05,5.51,.32,9.42-6.79,14.08-13.2,18.59-5.1,3.59-10.51,1.63-15.15-2.12-.77-.63-1.54-1.27-2.28-1.94q-6.13-5.54-12.03,.58c-.23,.24-.46,.49-.69,.73-4.35,4.56-9.8,3.6-12.21-2.3-.33-.82,.03-2.45,.67-3.05,11.65-10.9,23.4-21.7,35.74-33.09Zm-10.22,24.37c3.55,2.55,6.82,6.69,9.42,6.3,2.95-.44,7.02-4.72,7.38-7.72,.31-2.58-3.92-5.7-6.64-9.21-3.66,3.82-6.57,6.87-10.17,10.63Z"/>
      <path d="M358.9,31.44c-.36,.66-.49,.8-.51,.95-.73,8.94-.63,9.04,8.01,8.57,2.16-.12,4.35,.02,6.48-.3,3.93-.59,5.11,.9,5.3,4.86,.23,4.56-.96,6.12-5.71,6.01-7.14-.17-14.3,.47-21.45,.83-2.41,.12-4.24-.12-4.36-3.24-.55-15.3-1.21-30.6-1.81-45.91-.02-.47,.22-.95,.48-2.03,9.14-.39,18.41-.81,27.68-1.18,3.62-.14,2.84,2.72,2.73,4.62-.13,2.11,1.87,5.43-2.36,5.86-2.81,.29-5.65,.28-8.48,.43q-8.52,.44-6.67,9.49c3.35,0,6.79,.09,10.23-.02,6.61-.22,6.62-.27,6.93,6.22,.05,.98-.11,1.96-.2,3.51-5.59,.45-11.12,.9-16.31,1.32Z"/>
      <path d="M80.52,142.32c6.32-7.41,12.06-14.06,17.71-20.8,1.76-2.11,3.35-2.46,5.35-.39,1.47,1.51,3.08,2.88,4.94,4.6-3.99,4.75-7.7,9.17-11.83,14.08,2.25,2.06,4.36,4,6.86,6.3,3.25-3.7,6.32-6.92,9.06-10.39,3.08-3.91,4.76-.32,6.84,1.05,2.42,1.59,3.52,3.32,1,5.97-2.95,3.1-5.61,6.48-8.29,9.61,.5,.94,.63,1.46,.96,1.78q5.89,5.77,11.19-.39c1.3-1.51,2.81-2.89,3.87-4.55,2.5-3.92,4.88-3.91,8.18-.73,2.46,2.37,3.38,3.94,.68,6.86-5.2,5.6-9.93,11.63-15.08,17.27-.91,1-3.65,1.88-4.3,1.33-12.36-10.29-24.54-20.81-37.13-31.61Z"/>
      <path d="M12.52,275.44c1.12-3.48,1.75-6.61,3.18-9.33,.62-1.18,2.84-2.06,4.38-2.14,5.31-.26,10.64,.05,15.96-.17,1.73-.07,3.42-1.1,5.13-1.7-1.08-1.52-1.93-3.3-3.29-4.5-2.86-2.52-6-4.73-9.01-7.08-6.86-5.35-7.16-7.46-1.59-15.87,8.16,8.85,20.43,12.89,25.88,24.6,.46,1,1.97,1.69,3.13,2.15,2.47,.98,4.98,1.97,7.57,2.5,4.99,1.01,5.79,3.34,4.1,8.1-1.5,4.24-3.09,5.84-7.43,3.77-2.38-1.14-4.98-2.02-7.57-2.42-2.07-.32-4.31,.11-6.42,.49-1.6,.3-3.11,1.51-4.68,1.53-9.44,.15-18.89,.07-29.33,.07Z"/>
      <path d="M.85,338.3c11.24-1.03,11.15-1.03,10.47,9.24-.68,10.16-2.57,9.41,8.87,10.1,4.98,.3,9.98,.4,14.95,.89,3.5,.34,5.29-.5,5.27-4.43-.02-4.31,.49-8.63,.8-13.5,2.79,0,5.57-.26,8.26,.14,.93,.14,2.33,1.92,2.3,2.92-.18,5.81-.33,11.68-1.26,17.4-1.03,6.4-5.42,9.82-11.98,9.65-9.15-.23-18.3-.67-27.42-1.39-6.94-.55-10.99-5.05-11.11-12.39-.1-6.12,.53-12.25,.84-18.62Z"/>
      <path d="M432.59,45.19c-.52,3.88-.92,6.81-1.5,11.12-7.88-1.47-15.58-2.37-22.93-4.48-4.79-1.38-6.6-6.08-6.1-10.94,.97-9.61,2.06-19.22,3.58-28.75,.96-6.07,5.19-9.31,11.83-9.18,5.64,.11,11.26,1.06,16.88,1.71,4.15,.48,2.51,3.59,2.37,5.8-.14,2.39,.12,5.4-3.83,4.97-3.97-.43-7.95-.8-11.91-1.37-2.52-.36-3.68,.46-3.95,3.05-.75,7.29-1.56,14.57-2.52,21.83-.41,3.06,.83,4.22,3.7,4.5,4.6,.45,9.18,1.09,14.37,1.73Z"/>
      <path d="M738.53,337.18c-9.28,.91-18.03,1.67-26.74,2.79-.86,.11-2.07,2.4-2.05,3.65,.07,3.81,.59,7.63,1.07,11.43,.54,4.23-2.48,3.97-5.11,4.17-2.51,.19-5.54,1.41-5.82-3.01-.34-5.31-1.22-10.59-1.3-15.9-.1-7.3,3.21-11.36,10.36-12.35,9.23-1.27,18.52-2.16,27.81-2.81,6.17-.43,10.39,2.54,11.77,8.56,1.32,5.8,1.89,11.8,2.35,17.75,.4,5.14-4.16,3-6.56,3.76-2.45,.78-4.11-.21-4.32-3.16-.33-4.62-.9-9.23-1.47-14.88Z"/>
      <path d="M728.81,246.4c-.68,.64-.98,1.06-1.4,1.29q-8.03,4.43-11.56-3.99-4.02-9.62-13.79-5.55c-4.46,1.86-8.86,3.86-13.38,5.54-3,1.11-3.93,2.61-2.46,5.63,1.53,3.14,2.6,6.5,4.13,9.64,2.24,4.59-1.58,4.82-4.09,6.06-2.59,1.27-4.81,2.18-6.14-1.79-1.53-4.57-3.8-8.89-5.4-13.44-2.64-7.49-.23-13.2,6.98-16.4,7.76-3.44,15.6-6.73,23.51-9.82,7.26-2.84,12.88-.81,16.33,6.08,2.73,5.47,4.89,11.22,7.26,16.76Z"/>
      <path d="M730.35,254.66c.43,.5,1.68,1.35,2.03,2.48,2.84,9.22,5.53,18.47,8.21,27.74,1.26,4.37-2.66,3.8-4.78,4.64-2.05,.81-4.26,1.89-5.49-1.72-2.72-7.95-2.9-7.9-10.98-5.57-8.47,2.45-17.07,4.53-25.33,7.52-5.74,2.08-5.78-1.58-7.03-5.07-1.34-3.76-.78-5.68,3.42-6.78,9.82-2.55,19.47-5.73,29.29-8.27,4.1-1.06,4.92-2.77,3.56-6.66-2.02-5.8-.17-8.07,7.1-8.33Z"/>
      <path d="M69.62,176.15c-1.31,1.78-2.22,2.95-3.05,4.16-3.5,5.13-6.67,5.35-10.52,.41-.62-.79-.48-2.86,.13-3.8,5.18-7.93,10.61-15.69,15.82-23.6,2.49-3.78,4.49-1.02,6.54,.29,1.97,1.26,4.63,2.06,2.45,5.62-4.32,7.06-4.15,7.18,2.81,11.91,7.42,5.04,14.72,10.26,22.33,15.01,5.44,3.4,1.28,5.88-.25,8.77-1.67,3.16-3.43,3.66-6.62,1.39-9.59-6.81-19.44-13.25-29.64-20.14Z"/>
      <path d="M315.23,56.98c-.56-.74-1.92-1.73-2.12-2.92-2.39-14.6-4.55-29.23-6.91-43.83-.45-2.82,.55-3.79,3.2-4.33,8.27-1.67,8.23-1.76,9.51,6.76,1.38,9.2,2.94,18.37,4.2,27.59,.49,3.6,1.9,5.01,5.57,4.01,2.07-.57,4.26-.72,6.39-1.04,6.3-.96,6.11-.93,7.02,5.33,.47,3.24-.44,4.5-3.66,4.92-7.41,.97-14.79,2.22-23.19,3.51Z"/>
      <path d="M289.15,10.57c.47,.63,1.75,1.65,2.08,2.92,3.61,13.99,7.03,28.04,10.61,42.04,1.63,6.37-3.84,4.72-6.62,6.01-3.38,1.56-4.56-.12-5.34-3.41-2.98-12.62-6.23-25.17-9.42-37.73-1.92-7.58-.22-9.81,8.69-9.82Z"/>
      <path d="M693.08,307.07c16.85-3.32,33.22-6.55,50.17-9.88,.75,4.27,1.38,7.89,2.08,11.92-16.04,3.19-31.46,6.32-46.94,9.18-1.08,.2-3.23-1.33-3.66-2.51-.94-2.56-1.08-5.41-1.65-8.71Z"/>
      <path d="M505.26,23.95c.71,.05,1.22,0,1.67,.12q9.88,2.74,6.25,12.18c-4.43,11.5-9.19,22.88-13.2,34.53-1.85,5.38-4.62,3.68-8,2.54-3.43-1.16-5.43-2.35-3.64-6.73,5.37-13.1,10.3-26.38,15.43-39.58,.41-1.06,.99-2.05,1.48-3.06Z"/>
      <path d="M69.23,648.41c-3.88,4.43-2.93,21.39,1.71,26.03h-9.45v-16.54c-.3-.12-.59-.25-.89-.37-2.6,5.87-5.2,11.75-7.8,17.62-.56,.01-1.13,.03-1.69,.04-2.67-5.87-5.35-11.74-8.02-17.61-.41,.09-.83,.18-1.24,.27,.71,5.46-3.33,11.14,2.24,16.77h-8.88c4.25-5.92,5.09-21.76,1.5-25.82,5.95-2.12,7.44-1.51,9.81,3.93,1.96,4.49,3.95,8.97,6.51,14.75,2.51-5.65,4.84-9.86,6.26-14.35,1.64-5.18,4.75-6.23,9.95-4.73Z"/>
      <path d="M262.68,648.16h10.38c-.73,3.72-1.44,7.36-2.46,12.55,5.14-.97,9.52-.64,11.84-2.66,1.36-1.19-.57-6.13-1.06-9.75h9.49c-4.03,4.84-4.1,20.97-.17,26.34h-11.13c3.86-3.65,5.31-8.18,2.02-11.27-1.69-1.58-8.04-1.14-9.46,.64-1.95,2.44-2.34,7.28,3.48,10.44h-11.79c3.6-6.35,3.41-21.79-1.15-26.27Z"/>
      <path d="M363.81,674.27c-4.6,1.25-7.77,1.26-9.55-3.17-.8-1.99-1.79-3.98-3.06-5.7-.77-1.05-2.24-1.59-3.4-2.37-.45,.29-.91,.59-1.36,.88,.59,3.42,1.19,6.83,1.83,10.55h-9.16c4.09-5.05,3.95-21.71-1.12-26.56,6.88,.25,12.68-1.28,18.28,1.51,3.88,1.94,4.94,6.66,2.57,10.19-1.02,1.53-3.07,3.59-2.66,4.63,1.18,2.98,3.34,5.59,5.2,8.28,.39,.57,1.18,.87,2.43,1.75Zm-16.71-13.68c4.09-.23,7.91-.49,7.76-5.23-.15-4.67-3.75-4.96-7.76-4.45v9.67Z"/>
      <path d="M618.75,647.7c4.86,.26,9.84-.05,14.56,.91,6.93,1.42,10.16,6.1,10.06,12.88-.09,6.41-3.94,11.63-10.42,12.82-4.57,.84-9.34,.56-14.79,.81,4.56-5.79,4.39-22.52,.59-27.42Zm8.21,3.56v20.45c8.03,.23,11.24-2.87,11.18-10.3-.06-7.06-3.89-10.63-11.18-10.16Z"/>
      <path d="M375.19,648.66c4.25-1.55,6.74-.61,9,2.23,3.89,4.88,8.06,9.55,12.75,14.03-.42-5.53,3.32-11.42-3.06-16.57h8.56c-.62,2.9-1.54,5.48-1.65,8.09-.24,5.95-.08,11.92-.08,18.53-5.41-.94-6.86-5.53-9.69-8.37-2.89-2.9-5.41-6.17-8.63-9.1,.15,5.59-2.73,11.42,2.19,16.93h-7.27c.49-4.09,1.48-8.39,1.36-12.65-.12-4.32,2.14-9.4-3.49-13.12Z"/>
      <path d="M453.17,674.61c4.27-4.87,4.13-21.97,.07-26,3.41-1.45,5.97-.92,8.29,1.93,3.97,4.88,8.12,9.6,12.32,14.54,2.39-5.86,1.57-13.16-2.23-16.65h8.53c-.69,2.88-1.82,5.76-1.98,8.68-.32,5.76-.09,11.54-.09,17.31l-1.58,.98c-2.62-2.89-5.26-5.76-7.85-8.68-2.72-3.06-5.38-6.17-8.66-9.02-.2,5.7-2.71,11.49,2.22,16.91h-9.04Z"/>
      <path d="M493.2,648.11c5.62,0,10.06-.44,14.38,.1,6.97,.87,10.91,5.35,11.28,11.82,.41,7.13-3.01,12.63-9.84,14.1-4.68,1.01-9.64,.71-15.32,1.04,4.59-5.66,4.41-22.53-.5-27.07Zm9.21,3.12v20.4c7.6,.55,11.34-2.78,11.47-9.82,.13-7.16-3.86-10.99-11.47-10.58Z"/>
      <path d="M108.88,661.7c-.02,8.47-5.05,13.9-12.9,13.91-8.17,.01-12.97-5.36-12.86-14.36,.11-8.69,4.84-13.84,12.84-13.96,7.86-.12,12.95,5.55,12.92,14.42Zm-4.79-.03c-.51-2.26-.41-4.95-1.66-6.65-1.59-2.16-4.06-4.45-6.52-4.99-3.49-.76-6.15,2.02-6.62,5.36-.56,4-.86,8.35,.18,12.15,.59,2.18,4.03,4.88,6.25,4.94,2.22,.07,4.95-2.51,6.66-4.59,1.23-1.48,1.16-4.03,1.69-6.23Z"/>
      <path d="M551.63,665.53c2.07,9.01,1.74,9.45-5.31,9.46-4.63,0-9.25,0-14.17,0,3.94-6.64,3.8-22.1-.73-26.99,6.76,0,12.79-.29,18.73,.32,.88,.09,1.32,4.44,1.97,6.81-.52,.15-1.04,.3-1.56,.46-1.17-1.58-2.03-3.81-3.6-4.58-1.78-.87-4.21-.45-6.73-.61v8.98c2.72,.32,5.26,.63,7.81,.93,0,.57,0,1.14-.01,1.72-2.42,.28-4.85,.55-7.73,.88v8.87c5.06,1.77,9.25,.99,11.34-6.25Z"/>
      <path d="M197.49,655.97c-1.66-5.79-5.72-5.9-10.42-5.28v8.76c2.48,.16,4.98,.33,7.49,.49l.26,1.92c-2.47,.37-4.95,.73-7.73,1.14v8.92c5.1,1.38,9.37,1,11.07-6.11,2.62,7.79,1.74,9.16-4.59,9.19-4.77,.02-9.54,0-14.65,0,4.06-6.47,3.95-21.96-.63-27.09,6.61,0,12.6-.75,18.27,.26,3.86,.69,1.94,4.55,.93,7.8Z"/>
      <path d="M304.35,674.99c4.91-5.14,4.9-21.75,.61-26.78h19.32v7.76q-4.86-6.01-11.06-4.76v8.41c1.9,0,3.81-.14,5.69,.07,.76,.09,1.44,.94,2.15,1.44-.68,.54-1.32,1.44-2.06,1.54-1.77,.23-3.59,.07-5.71,.07v9.05c5.24,1.84,9.13,.47,11.48-5.37,2.05,7.8,1.53,8.56-5.04,8.58-4.79,.01-9.58,0-15.38,0Z"/>
      <path d="M585.43,666.48c2.46,7.15,1.6,8.49-4.76,8.5-4.79,.01-9.57,0-15.58,0,3.64-9.3,10.36-15.71,14.57-24.17-5.26-.16-10.59-2.4-13.39,4.59v-7.2h21.38c-5.52,8.36-10.34,15.66-15.43,23.37,5.94,1.58,10.75,1.83,13.21-5.09Z"/>
      <path d="M414.56,674.6c1.87-3.92,3.78-7.59,5.4-11.38,1.77-4.13,3.18-8.42,4.93-12.56,.45-1.07,1.62-1.84,2.46-2.74,.86,.89,2.11,1.62,2.52,2.69,1.93,4.96,3.49,10.08,5.48,15.02,1.22,3.02,3,5.82,4.64,8.91h-8.32c-.52-2.27-.66-6.17-1.6-6.37-2.83-.61-6.02,.01-8.94,.71-.4,.1-.06,3.33-.06,5.72h-6.52Zm8.23-10.14h6.8c-1.14-2.89-2.04-5.19-2.94-7.49-.41,.02-.83,.03-1.24,.05-.83,2.36-1.66,4.73-2.61,7.44Z"/>
      <path d="M162.51,653.77c-2.93-1.31-5.45-2.82-8.18-3.46-.91-.21-3.1,1.65-3.32,2.82-.21,1.14,1.06,3.02,2.2,3.85,1.99,1.45,4.45,2.23,6.6,3.49,3.23,1.89,5.47,4.53,4.67,8.57-.79,3.96-3.65,5.8-7.44,6.28-1.64,.21-3.33,.32-4.96,.13-6.33-.71-6.77-1.41-4.07-9.35,.25,.93,.5,1.86,.74,2.79,1.27,4.87,4.9,4.41,8.35,3.35,3.52-1.08,3.99-4.74,.93-6.85-2.45-1.69-5.71-2.45-7.71-4.5-1.96-2.02-4.21-5.45-3.72-7.7,.49-2.25,4.06-4.03,6.57-5.55,1.12-.68,2.93-.32,4.42-.24,5.83,.32,6.55,1.56,4.91,6.37Z"/>
      <path d="M228.59,655.93c-.94-1.8-1.27-3.44-2.25-4.07-1.49-.95-3.47-1.73-5.15-1.58-1.28,.12-3.39,1.8-3.39,2.78,0,1.43,1.27,3.27,2.53,4.2,2.12,1.54,5.22,2,6.88,3.84,1.91,2.11,3.64,5.21,3.73,7.93,.12,3.69-3.14,5.65-6.65,6.32-1.77,.34-3.66,.31-5.47,.16-6.07-.5-6.77-1.61-5.15-8.76,.87,1.21,1.54,1.95,2,2.81,1.74,3.25,6.2,4.46,9.14,2.24,2.9-2.19,2.36-4.66-.28-6.53-2.15-1.52-4.69-2.48-7.01-3.77-3.35-1.86-5.37-4.56-4.48-8.57,.86-3.88,3.84-5.16,7.43-5.42,1.32-.1,2.66-.22,3.98-.13,5.75,.4,6.44,1.61,4.13,8.55Z"/>
      <path d="M694.34,656.03c-1.72-3.99-3.64-7.19-8.7-5.49-5.03,1.7-6.26,5.5-6.51,10.04-.35,6.1,1.65,10.38,5.66,11.58,3.66,1.1,7.36,1.64,8.61-3.56,.15-.62,.97-1.08,1.63-1.79,1.73,6.55,1.21,7.62-4.38,8.46-5.69,.85-11.04,.28-14.55-5.09-3.1-4.73-2.81-13.65,.41-18.04,3.13-4.25,12.91-6.79,17.19-3.76,1.56,1.11,1.57,4.42,2.29,6.72-.55,.3-1.1,.61-1.65,.91Z"/>
      <path d="M237.55,384.67c11.45,.11,20.63,6.1,29.82,12.3-7.03,0-14.35,1.2-20.97-.45-3.99-1-6.88-6.43-10.26-9.86,.47-.66,.94-1.33,1.41-1.99Z"/>
      <path d="M303,396.44c10.07-5.57,19.24-11.82,31.17-11.75-2.52,8.92-7.18,12.77-15.23,12.91-4.81,.08-9.63,0-14.45-.04-.25,0-.49-.35-1.49-1.11Z"/>
      <path d="M288.18,449.94c3.66,1.19,7.32,2.38,10.98,3.57-2.49,3.08-4.72,6.44-7.61,9.07-1.04,.94-3.96,.7-5.53-.04-2.01-.95-3.66-2.82-5.22-4.52-1.24-1.36-2.11-3.06-3.14-4.61,1.76-.78,3.46-1.77,5.3-2.27,1.57-.43,3.29-.29,4.94-.4,.09-.27,.18-.53,.27-.8Z"/>
      <path d="M121.44,648.18h11.15c-3.82,6.04-3.75,21.69,.45,26.3h-10.78c4.01-5.08,3.86-21.7-.82-26.3Z"/>
    </g>
  </g>
</svg>